<?xml version="1.0" standalone="no"?>
<!DOCTYPE svg PUBLIC "-//W3C//DTD SVG 20010904//EN"
 "http://www.w3.org/TR/2001/REC-SVG-20010904/DTD/svg10.dtd">
<svg version="1.0" xmlns="http://www.w3.org/2000/svg"
 width="260.000000pt" height="260.000000pt" viewBox="0 0 260.000000 260.000000"
 preserveAspectRatio="xMidYMid meet">
<metadata>
Created by potrace 1.11, written by Peter Selinger 2001-2013
</metadata>
<g transform="translate(0.000000,260.000000) scale(0.100000,-0.100000)"
fill="#000000" stroke="none">
<path d="M330 2321 c-84 -27 -151 -89 -176 -163 -13 -41 -15 -113 -11 -545 2
-274 6 -507 9 -518 3 -11 11 -40 18 -65 54 -201 212 -410 412 -543 140 -94
276 -150 457 -189 126 -28 372 -30 508 -5 448 82 801 381 898 760 23 90 24
100 24 588 l1 496 -26 52 c-46 91 -134 142 -240 137 -46 -3 -104 -21 -257 -80
l-197 -78 -48 16 c-148 49 -375 70 -544 51 -64 -8 -175 -30 -245 -50 l-51 -15
-159 61 c-87 34 -176 68 -198 77 -47 17 -140 24 -175 13z m288 -367 c198 -78
246 -86 347 -56 237 71 471 73 656 7 24 -8 73 -18 109 -22 63 -5 71 -3 249 66
101 39 186 69 189 67 2 -3 4 -194 4 -426 -1 -442 -3 -469 -49 -570 -93 -205
-320 -374 -583 -435 -101 -24 -311 -28 -414 -10 -316 57 -562 244 -654 497
l-27 73 -3 438 c-2 240 0 437 3 437 3 0 81 -30 173 -66z"/>
<path d="M864 1357 c-108 -41 -150 -155 -94 -255 28 -49 102 -92 160 -92 58 0
132 43 160 92 32 57 31 130 -1 182 -45 70 -147 103 -225 73z"/>
<path d="M1605 1351 c-115 -53 -143 -190 -57 -280 150 -157 408 29 293 211
-51 80 -150 109 -236 69z"/>
</g>
</svg>
