<?xml version="1.0" standalone="no"?>
<!DOCTYPE svg PUBLIC "-//W3C//DTD SVG 20010904//EN"
 "http://www.w3.org/TR/2001/REC-SVG-20010904/DTD/svg10.dtd">
<svg version="1.0" xmlns="http://www.w3.org/2000/svg"
 width="512.000000pt" height="512.000000pt" viewBox="0 0 512.000000 512.000000"
 preserveAspectRatio="xMidYMid meet">
<metadata>
Created by potrace 1.11, written by Peter Selinger 2001-2013
</metadata>
<g transform="translate(0.000000,512.000000) scale(0.100000,-0.100000)"
fill="#000000" stroke="none">
<path d="M4474 5012 c2 -4 -3 -16 -11 -27 -13 -16 -14 -16 -10 -3 5 15 4 16
-13 6 -10 -7 -17 -16 -14 -20 3 -4 -10 -14 -28 -23 -18 -8 -26 -13 -17 -11 9
2 16 -2 16 -9 0 -7 -6 -11 -12 -8 -7 2 -15 -3 -19 -12 -3 -9 -10 -13 -16 -10
-5 3 -10 -1 -10 -10 0 -10 -5 -13 -12 -9 -8 5 -9 2 -5 -10 4 -10 3 -15 -3 -11
-6 3 -10 -1 -10 -9 0 -8 -5 -18 -12 -22 -7 -5 -9 -2 -4 7 4 8 1 6 -7 -3 -8
-10 -18 -14 -22 -10 -5 4 -5 -2 -1 -13 4 -11 4 -16 1 -13 -4 4 -20 -7 -36 -23
-15 -16 -33 -29 -39 -29 -5 0 -9 -3 -9 -7 3 -21 -3 -33 -17 -33 -10 0 -14 -6
-11 -14 4 -11 1 -13 -10 -9 -11 4 -14 2 -9 -5 4 -7 2 -13 -3 -13 -6 -1 -17 -2
-23 -3 -7 -1 -13 -11 -12 -23 0 -15 -5 -20 -18 -18 -10 2 -17 -2 -15 -8 1 -7
-4 -11 -12 -9 -12 3 -12 0 -1 -13 11 -13 10 -15 -6 -9 -10 4 -16 3 -11 -1 9
-11 -62 -85 -81 -85 -7 0 -11 -4 -8 -9 3 -5 -1 -12 -9 -15 -8 -3 -15 -9 -14
-13 3 -20 -2 -25 -15 -14 -11 9 -16 9 -22 0 -4 -8 -3 -9 4 -5 18 11 14 -10 -5
-25 -10 -9 -14 -9 -10 -2 5 8 -1 8 -20 -2 -20 -11 -29 -11 -34 -3 -6 9 -12 8
-25 -3 -16 -12 -17 -12 -12 2 5 13 2 16 -14 11 -16 -4 -19 -2 -13 9 5 8 5 11
0 7 -4 -4 -15 -2 -23 5 -13 11 -14 9 -2 -13 13 -24 12 -24 -5 -10 -19 16 -21
16 -44 -3 -11 -9 -13 -9 -8 0 4 7 -5 17 -23 26 -34 17 -37 16 -14 -7 8 -9 11
-16 6 -16 -5 0 -15 7 -22 15 -7 8 -18 15 -24 15 -7 0 -6 -4 2 -9 9 -5 4 -8
-16 -7 -25 1 -28 4 -19 15 10 12 9 12 -10 3 -27 -15 -46 -15 -38 -2 3 6 4 10
0 10 -3 0 -10 -10 -15 -22 -6 -17 -9 -19 -9 -6 -1 11 -6 15 -16 12 -8 -4 -13
-9 -11 -13 3 -4 -4 -7 -15 -7 -10 0 -19 4 -19 8 0 4 -5 8 -11 8 -5 0 -7 -4 -4
-10 3 -5 0 -7 -9 -4 -8 3 -23 1 -33 -4 -12 -7 -26 -6 -48 5 -27 15 -29 15 -17
0 12 -14 10 -15 -13 -11 -15 3 -24 1 -21 -4 3 -5 -1 -9 -9 -9 -8 0 -12 4 -10
8 9 13 -30 4 -43 -11 -8 -8 -11 -10 -8 -3 7 13 -19 12 -31 -2 -4 -4 -2 -5 5
-1 6 4 12 2 12 -3 0 -10 -36 -16 -69 -12 -7 2 -10 -2 -6 -9 5 -9 1 -9 -15 0
-20 11 -22 10 -17 -4 5 -13 2 -15 -20 -10 -18 5 -24 4 -19 -5 4 -6 2 -11 -3
-11 -6 0 -11 6 -12 13 0 6 -4 3 -9 -8 -8 -18 -9 -19 -9 -1 -1 11 -6 16 -15 13
-16 -7 -66 39 -66 60 0 7 -14 16 -30 20 -26 5 -29 8 -18 21 7 9 8 13 2 9 -12
-7 -54 19 -54 34 0 6 5 7 12 3 7 -4 8 -3 4 4 -5 9 -13 9 -26 2 -16 -9 -18 -8
-13 7 5 13 3 15 -11 10 -9 -4 -15 -3 -11 2 3 5 -4 12 -14 16 -12 4 -18 12 -14
21 3 9 -2 14 -16 14 -19 0 -26 11 -22 34 1 5 -5 4 -13 -3 -13 -11 -15 -10 -11
8 2 14 -1 18 -11 14 -9 -3 -14 1 -14 12 0 9 -4 14 -9 11 -5 -3 -12 1 -15 10
-4 10 -12 14 -22 10 -15 -6 -15 -4 -3 11 9 11 10 14 2 9 -8 -4 -13 -1 -13 8 0
9 -6 15 -12 14 -7 -2 -12 3 -10 11 3 12 0 12 -13 1 -13 -11 -14 -10 -8 5 5 14
3 17 -10 12 -10 -4 -18 0 -22 12 -3 10 -16 24 -30 31 -13 7 -22 17 -19 22 3 4
0 8 -6 8 -6 0 -8 5 -4 13 5 8 2 8 -9 -2 -15 -11 -17 -11 -17 2 0 8 -7 18 -16
21 -8 3 -13 10 -10 15 7 11 -22 23 -35 15 -5 -3 -9 -2 -8 3 3 19 -2 33 -12 33
-5 0 -7 -6 -3 -12 4 -7 -2 -5 -13 5 -11 9 -24 14 -28 10 -5 -5 -3 1 5 11 14
18 14 19 -7 8 -16 -9 -24 -9 -29 0 -4 7 -3 8 4 4 7 -4 12 -3 12 3 0 14 -45 7
-66 -10 -10 -8 -15 -9 -11 -2 4 6 3 15 -3 18 -6 4 -10 3 -9 -2 3 -18 -1 -36
-7 -30 -10 9 -66 -22 -59 -33 4 -6 1 -10 -6 -10 -8 0 -8 -4 1 -15 11 -13 10
-14 -5 -8 -14 5 -17 3 -12 -10 3 -9 2 -19 -3 -22 -15 -9 -12 -37 3 -29 6 4 9
4 5 -1 -4 -4 -3 -14 3 -22 6 -7 7 -13 2 -13 -5 0 -9 -16 -10 -35 0 -19 3 -33
7 -30 3 2 7 -2 7 -9 0 -8 -6 -12 -13 -9 -6 2 -15 -1 -19 -7 -3 -6 -1 -9 6 -8
6 2 14 -3 17 -11 3 -8 0 -11 -7 -7 -7 5 -9 1 -5 -8 3 -9 11 -16 18 -17 6 0 2
-4 -9 -9 -17 -7 -17 -9 -3 -9 11 -1 15 -6 12 -16 -4 -8 -11 -12 -18 -8 -6 3
-3 -2 6 -13 14 -16 15 -23 6 -32 -9 -9 -9 -12 2 -12 11 0 11 -3 2 -12 -13 -13
-16 -32 -4 -24 4 2 8 -4 8 -14 0 -10 -4 -16 -8 -14 -4 3 -8 0 -8 -5 0 -6 6
-11 13 -11 8 0 7 -4 -3 -10 -10 -6 -11 -10 -2 -10 6 0 12 -5 12 -11 0 -5 -4
-8 -8 -5 -5 3 -9 -1 -9 -9 0 -8 4 -12 9 -9 4 3 8 -2 8 -11 0 -10 -5 -13 -12
-9 -9 6 -9 3 0 -9 8 -9 10 -22 6 -29 -11 -17 -13 -48 -3 -48 4 0 9 6 12 13 2
6 4 0 3 -15 0 -14 -4 -24 -8 -21 -5 2 -8 0 -8 -6 0 -5 6 -12 13 -14 9 -4 9 -6
0 -6 -7 -1 -10 -8 -7 -16 4 -8 11 -12 18 -9 6 3 2 -2 -8 -10 -11 -9 -15 -16
-8 -16 6 0 9 -7 5 -17 -4 -10 -2 -14 5 -9 6 3 14 2 17 -4 4 -6 3 -10 -2 -9
-28 5 -41 -28 -18 -48 4 -5 5 -3 1 4 -3 6 -2 14 3 17 5 4 8 -2 6 -11 -1 -10 3
-24 9 -32 8 -11 8 -13 -1 -7 -9 5 -12 -5 -9 -39 2 -25 0 -45 -3 -45 -4 0 -7
-11 -7 -25 0 -16 5 -24 12 -21 16 6 12 -27 -5 -40 -11 -9 -12 -12 -1 -19 9 -6
11 -4 5 5 -5 9 -4 11 4 6 9 -6 8 -14 -4 -33 -10 -14 -12 -22 -6 -19 6 4 11 0
11 -9 0 -9 -4 -14 -9 -11 -5 4 -8 -2 -6 -11 1 -10 -2 -23 -7 -29 -5 -7 -3 -14
5 -17 10 -4 13 2 11 19 -1 13 1 22 5 20 4 -3 6 -20 5 -38 -3 -48 -3 -50 -12
-44 -4 2 -9 -4 -9 -15 -1 -10 3 -19 8 -19 6 0 7 5 3 12 -5 7 -3 8 5 3 9 -5 10
-10 2 -18 -14 -14 -14 -30 -1 -22 6 3 10 1 10 -4 0 -6 -8 -11 -17 -11 -11 0
-14 -3 -7 -8 6 -4 14 -16 17 -27 l7 -20 -16 20 c-14 16 -15 17 -10 3 3 -10 9
-26 12 -35 5 -15 4 -14 -9 2 -16 20 -16 19 -10 -5 3 -14 11 -31 17 -39 9 -12
8 -13 -7 -8 -10 4 -16 3 -12 -2 3 -5 2 -11 -2 -14 -5 -2 -2 -2 6 0 11 3 11 0
3 -10 -9 -10 -8 -17 1 -27 8 -8 8 -11 1 -7 -7 4 -15 0 -18 -9 -4 -10 -2 -13 7
-8 8 5 7 2 -2 -9 -9 -11 -10 -17 -2 -17 6 0 11 -5 11 -11 0 -5 -6 -7 -13 -3
-7 5 -6 0 3 -11 9 -11 10 -16 3 -11 -7 4 -13 2 -13 -3 0 -6 6 -11 13 -11 6 -1
1 -7 -13 -15 -22 -13 -23 -14 -5 -15 l20 -1 -20 -9 c-14 -6 -16 -9 -5 -10 8
-2 18 -2 23 -1 4 1 2 -8 -5 -18 -7 -11 -16 -17 -20 -15 -4 3 -8 1 -8 -5 0 -5
7 -14 17 -19 15 -9 14 -10 -3 -16 -16 -5 -19 -15 -18 -63 0 -38 -5 -69 -17
-90 -17 -31 -17 -33 -1 -42 14 -9 14 -11 2 -12 -8 -1 -19 -1 -23 0 -5 1 -6 -3
-2 -9 3 -6 10 -8 14 -6 4 3 8 -1 8 -9 0 -8 -4 -12 -9 -9 -4 3 -8 -2 -8 -11 0
-10 5 -13 13 -9 9 6 9 5 0 -8 -7 -8 -10 -18 -6 -22 4 -4 -1 -4 -11 0 -16 6
-17 5 -5 -15 11 -17 11 -25 2 -41 -9 -14 -10 -21 -1 -26 7 -5 5 -11 -7 -21
-18 -13 -18 -13 1 -13 16 0 17 -2 4 -10 -11 -7 -11 -10 -2 -10 7 0 10 -5 7
-10 -4 -6 -11 -8 -16 -5 -5 3 -6 -1 -3 -9 3 -9 11 -13 18 -9 6 3 0 -6 -14 -22
-14 -16 -20 -25 -13 -21 6 3 14 2 18 -4 3 -5 1 -10 -4 -10 -6 0 -11 -4 -11
-10 0 -5 8 -7 18 -4 14 5 15 4 2 -5 -13 -9 -13 -14 -2 -32 10 -15 10 -19 1
-13 -9 5 -11 1 -7 -14 4 -13 2 -19 -6 -16 -7 3 -12 -5 -12 -21 0 -19 4 -24 15
-20 9 3 12 3 8 -1 -4 -4 -2 -13 4 -21 7 -8 8 -13 1 -13 -5 0 -9 -15 -8 -34 1
-26 -2 -32 -11 -25 -8 7 -10 5 -6 -10 3 -13 11 -18 21 -14 14 4 14 3 3 -5 -7
-5 -11 -14 -7 -20 3 -6 1 -14 -5 -18 -8 -5 -9 -3 -4 6 6 9 4 11 -4 6 -7 -5
-10 -15 -7 -23 3 -8 1 -11 -4 -8 -6 3 -10 0 -10 -7 0 -10 -3 -9 -9 2 -6 8 -7
18 -5 22 9 15 -3 8 -17 -9 -12 -14 -12 -16 0 -8 10 5 12 4 7 -4 -6 -9 -11 -9
-24 1 -12 10 -14 10 -8 1 4 -7 2 -13 -3 -13 -6 0 -11 5 -11 10 0 6 -5 10 -11
10 -5 0 -7 -4 -4 -10 3 -6 -3 -10 -14 -10 -11 0 -23 -5 -26 -10 -3 -5 -12 -10
-18 -10 -7 0 -6 4 3 10 9 6 10 10 3 10 -6 0 -15 -5 -19 -11 -4 -8 -9 -7 -15 2
-7 12 -9 12 -9 0 0 -8 -7 -11 -19 -8 -15 3 -18 1 -14 -11 5 -11 2 -14 -10 -9
-10 4 -17 2 -17 -5 0 -9 -3 -9 -12 0 -9 9 -16 8 -32 -6 -14 -12 -17 -13 -11
-2 5 9 -1 7 -15 -5 -13 -11 -20 -15 -17 -8 5 7 1 11 -12 10 -11 0 -17 -6 -14
-14 3 -8 -3 -14 -13 -15 -11 0 -25 -2 -32 -2 -7 -1 -17 -8 -22 -16 -5 -8 -10
-11 -10 -6 0 6 -7 1 -15 -10 -8 -10 -15 -15 -15 -10 0 5 -8 2 -17 -5 -11 -9
-14 -10 -9 -2 5 9 2 11 -8 7 -9 -3 -13 -11 -9 -18 4 -6 -1 -5 -10 3 -15 12
-17 11 -17 -2 0 -9 -5 -19 -12 -23 -6 -4 -8 -3 -5 2 3 5 -3 10 -13 10 -15 0
-16 -3 -8 -14 6 -7 7 -12 2 -11 -21 4 -45 -2 -40 -9 2 -4 -5 -14 -17 -22 -21
-12 -21 -12 -7 6 14 18 14 18 -3 5 -10 -8 -15 -21 -12 -29 4 -12 3 -12 -9 -3
-11 9 -18 6 -36 -16 -12 -15 -19 -23 -16 -16 4 6 2 15 -4 18 -6 4 -9 1 -8 -7
2 -7 -2 -12 -9 -11 -8 2 -10 -4 -6 -13 4 -12 2 -15 -8 -12 -18 7 -51 -10 -44
-22 3 -4 -11 -14 -30 -20 -19 -6 -35 -17 -35 -23 0 -8 4 -7 12 1 7 7 16 12 22
12 5 0 1 -6 -9 -14 -11 -8 -25 -12 -32 -9 -8 3 -13 -3 -13 -16 0 -12 -5 -21
-11 -21 -5 0 -7 6 -4 13 4 6 0 3 -9 -7 -8 -10 -13 -23 -10 -27 3 -5 -2 -6 -10
-3 -9 3 -16 1 -16 -6 0 -6 -4 -8 -10 -5 -5 3 -10 1 -10 -5 0 -7 -9 -23 -20
-37 -11 -14 -20 -21 -20 -16 0 5 6 15 13 23 6 8 2 6 -10 -4 -12 -10 -21 -23
-20 -30 1 -6 -4 -10 -10 -9 -7 2 -12 -2 -10 -9 1 -7 -4 -12 -12 -13 -8 0 -16
-7 -18 -15 -4 -13 -3 -13 6 0 6 8 11 10 11 5 0 -16 -49 -65 -65 -65 -8 0 -12
-8 -10 -19 2 -13 -1 -18 -10 -15 -7 3 -16 0 -21 -7 -5 -8 -3 -10 7 -4 12 8 12
6 0 -9 -11 -13 -16 -14 -24 -4 -6 9 -7 8 -3 -4 3 -10 -2 -24 -10 -33 -9 -8
-12 -15 -7 -15 4 0 0 -5 -10 -11 -9 -6 -15 -14 -12 -20 4 -5 1 -9 -4 -9 -6 0
-11 -6 -11 -14 0 -8 -7 -16 -15 -20 -8 -3 -15 -13 -15 -21 0 -9 -4 -13 -10
-10 -5 3 -11 -1 -11 -9 -1 -9 -2 -21 -3 -28 0 -7 -11 -17 -23 -23 -16 -8 -19
-15 -12 -22 8 -8 7 -13 -2 -18 -8 -6 -10 -4 -4 6 6 10 5 11 -3 4 -6 -6 -13
-22 -16 -35 -2 -14 -5 -27 -6 -30 -2 -3 -2 -8 -1 -12 0 -4 -6 -5 -15 -1 -8 3
-14 2 -13 -3 1 -5 1 -18 0 -29 -1 -17 -3 -18 -11 -5 -7 11 -10 7 -10 -17 0
-17 -5 -35 -10 -38 -6 -4 -8 -10 -5 -15 3 -5 1 -11 -4 -14 -10 -7 -9 20 2 30
4 4 7 12 7 18 0 5 -6 1 -14 -9 -7 -10 -13 -28 -12 -39 1 -12 -5 -27 -14 -34
-10 -9 -10 -11 -1 -6 7 4 4 -7 -9 -24 -12 -16 -19 -35 -16 -41 4 -6 0 -11 -11
-12 -11 0 -13 -3 -5 -6 10 -4 9 -9 -5 -19 -17 -13 -17 -14 2 -7 16 5 15 1 -8
-20 -26 -25 -38 -55 -17 -42 6 3 7 -1 4 -9 -3 -9 -9 -14 -13 -12 -4 3 -12 -4
-19 -14 -9 -14 -9 -21 0 -26 7 -5 8 -3 3 6 -5 9 -4 11 4 6 15 -10 3 -29 -15
-22 -12 4 -12 2 -4 -14 6 -11 7 -20 2 -20 -4 0 -8 -15 -8 -32 0 -25 -4 -33
-16 -32 -18 2 -20 -16 -3 -28 6 -4 1 -8 -10 -8 -14 0 -16 -3 -8 -11 12 -12 6
-42 -6 -34 -5 2 -7 -13 -6 -35 1 -22 -2 -37 -7 -34 -4 3 -6 9 -3 14 3 5 1 11
-4 15 -6 3 -8 -6 -5 -21 3 -15 1 -23 -5 -20 -11 7 -9 -13 2 -32 5 -7 3 -12 -3
-12 -6 0 -8 -4 -5 -10 3 -5 2 -10 -4 -10 -11 0 -9 -19 3 -38 4 -7 5 -16 2 -19
-3 -4 -6 -1 -6 5 0 7 -4 12 -9 12 -4 0 -7 -11 -5 -26 2 -22 0 -23 -13 -12 -14
12 -15 11 -5 -9 10 -17 9 -22 -4 -27 -13 -5 -14 -9 -4 -21 10 -12 10 -18 -1
-32 -9 -11 -10 -14 -2 -9 9 5 11 2 7 -8 -3 -9 -11 -13 -18 -10 -6 3 -2 -2 9
-12 20 -16 20 -16 -2 -11 -22 5 -22 4 -5 -22 16 -24 16 -25 0 -13 -15 12 -17
11 -13 -7 2 -12 0 -21 -6 -21 -5 0 -9 -4 -9 -10 0 -5 8 -7 18 -3 16 6 16 5 -1
-14 -9 -11 -17 -24 -17 -29 0 -5 5 -2 11 6 9 12 10 12 5 -3 -3 -10 -6 -23 -6
-28 0 -6 -4 -7 -10 -4 -5 3 -10 1 -10 -4 0 -6 4 -11 8 -11 14 0 8 -53 -6 -58
-15 -5 -16 10 -1 25 8 8 8 13 0 17 -14 9 -13 12 -16 -57 -2 -43 1 -60 11 -64
8 -3 11 -10 7 -16 -4 -6 -1 -7 7 -2 10 6 9 11 -4 21 -18 13 -13 40 5 28 5 -3
7 -9 4 -14 -3 -4 2 -13 10 -20 8 -7 12 -16 9 -21 -3 -5 3 -6 12 -2 10 4 15 2
11 -4 -3 -5 0 -10 8 -10 8 0 18 9 21 20 5 16 8 17 15 6 7 -11 9 -10 9 4 0 9 5
17 11 17 5 0 7 5 4 10 -3 6 -1 10 5 10 6 0 9 4 5 9 -3 5 2 16 10 24 11 12 12
17 2 21 -9 5 -9 7 1 12 10 5 10 9 1 20 -7 8 -9 18 -5 21 4 4 11 1 16 -7 6 -10
8 -1 7 28 -2 24 1 46 5 48 4 3 8 19 8 35 0 22 4 28 13 23 7 -5 6 0 -3 11 -8
10 -10 16 -4 12 16 -10 25 18 11 33 -9 10 -9 11 0 6 6 -3 14 -2 18 4 6 10 -9
15 -30 10 -5 -1 -6 2 -2 7 5 4 14 8 20 8 5 0 12 6 15 14 3 8 0 11 -7 7 -7 -5
-9 -1 -5 8 3 9 9 14 13 11 4 -2 8 2 8 10 0 8 -4 12 -8 9 -10 -6 -3 36 7 45 4
3 4 -3 0 -14 -6 -16 -5 -17 5 -8 9 9 9 16 1 25 -8 10 -8 18 0 28 8 12 9 12 4
-3 -3 -10 -2 -15 3 -12 6 3 9 14 8 25 -1 10 -4 17 -8 14 -4 -2 -11 1 -15 7 -4
8 -3 9 4 5 7 -4 12 -3 12 3 0 6 8 8 18 5 15 -5 15 -4 -1 6 -12 8 -15 16 -9 23
5 7 8 20 7 29 -2 10 0 17 3 17 20 -3 25 2 12 11 -13 8 -13 11 -1 22 12 11 12
10 6 -2 -8 -13 -6 -13 7 -2 17 14 18 28 4 51 -6 9 -5 12 1 8 6 -4 13 2 16 13
3 13 1 18 -6 13 -7 -3 -3 4 8 17 11 13 14 20 7 16 -11 -7 -11 -4 -1 12 7 12
17 18 21 16 4 -3 8 0 8 5 0 6 -6 11 -12 11 -10 0 -9 3 1 9 11 7 11 10 0 15 -8
3 -4 4 9 2 18 -4 21 -2 12 9 -14 17 -9 38 10 46 8 3 15 10 15 15 0 5 4 15 9
23 6 10 5 12 -2 7 -7 -4 -12 -2 -12 3 0 11 15 15 34 12 5 -1 4 5 -4 13 -9 12
-9 16 -1 16 7 0 10 4 7 9 -4 5 0 12 6 14 9 4 9 6 -2 6 -10 1 -8 5 7 16 14 10
20 24 18 40 -1 14 0 23 3 20 3 -3 11 9 17 27 6 18 17 32 24 30 7 -1 10 2 7 7
-4 5 0 12 6 14 10 4 10 6 1 6 -7 1 -13 6 -13 12 0 5 4 8 9 5 5 -3 12 6 15 19
4 14 11 23 16 20 6 -4 7 -12 4 -18 -4 -7 -3 -9 1 -4 13 11 13 47 1 40 -6 -4
-5 1 2 10 8 9 11 21 8 26 -4 6 2 8 15 6 17 -3 19 -1 9 10 -8 10 -8 15 1 21 8
5 9 3 4 -6 -6 -9 -4 -11 4 -5 7 4 11 16 8 26 -3 11 -1 16 4 13 15 -9 38 16 32
33 -5 13 -2 15 12 10 16 -7 16 -5 4 10 -12 15 -12 16 4 10 10 -4 16 -3 12 2
-8 14 6 42 18 34 6 -4 8 0 4 10 -4 11 -1 17 7 17 7 0 21 9 30 19 13 15 14 20
4 24 -8 3 -6 6 6 6 16 1 17 3 5 18 -13 15 -12 15 11 3 23 -12 24 -12 11 4 -12
14 -12 16 1 11 10 -4 17 1 21 15 4 15 10 19 19 14 10 -6 10 -4 -1 9 -12 15
-12 17 3 11 11 -4 16 -2 14 7 -2 8 3 13 9 12 7 -2 12 3 10 10 -1 6 4 11 11 9
8 -1 11 2 8 7 -3 5 1 12 10 15 8 3 12 10 9 16 -3 6 1 7 10 4 10 -4 15 -2 13 7
-2 8 5 13 15 13 14 -2 15 1 6 12 -10 12 -8 13 7 8 10 -4 16 -4 12 1 -4 4 -1
14 7 21 17 17 29 18 19 2 -4 -7 -3 -8 4 -4 7 4 12 14 12 23 0 9 6 13 14 10 10
-4 13 -1 10 7 -6 15 22 29 38 19 7 -3 8 -1 4 6 -10 15 11 41 34 41 10 0 25 10
34 22 9 13 14 17 11 11 -3 -7 -1 -13 4 -13 6 0 11 7 11 16 0 10 6 14 14 11 10
-4 13 -1 9 9 -4 11 0 15 13 12 11 -2 18 2 16 10 -2 10 2 10 20 1 21 -11 22
-11 9 5 -8 9 -10 16 -5 15 25 -4 45 2 38 13 -4 6 -3 8 3 5 6 -4 16 0 23 9 7 8
20 12 28 9 9 -3 12 0 9 8 -3 8 1 14 9 14 8 0 14 -7 14 -16 0 -10 5 -6 13 9 9
17 20 24 35 22 12 -2 34 6 49 17 20 17 29 19 40 9 8 -6 13 -7 12 -2 -4 21 2
28 11 14 8 -13 10 -12 10 3 0 15 4 16 20 7 15 -8 18 -8 15 3 -4 8 3 13 15 14
12 1 18 -2 14 -9 -8 -13 12 -3 40 21 11 9 16 11 13 5 -4 -7 0 -15 9 -18 10 -4
13 -2 8 6 -5 7 0 9 14 6 16 -5 19 -2 15 11 -5 12 -3 13 7 4 13 -12 43 -6 35 7
-3 5 9 5 27 0 24 -8 36 -6 49 6 13 12 19 12 25 3 4 -8 3 -10 -4 -5 -7 4 -12 2
-12 -3 0 -14 17 -14 26 0 3 6 15 9 25 6 11 -3 16 -1 13 5 -3 5 0 8 7 6 8 -1
16 2 18 7 9 19 26 33 35 27 5 -3 6 0 2 7 -4 7 -9 39 -10 71 -2 48 1 60 13 60
13 1 13 3 -2 11 -17 10 -17 13 -3 34 11 16 12 26 5 30 -6 4 -8 13 -5 21 3 7 0
16 -6 20 -7 5 -8 2 -3 -6 5 -9 4 -11 -4 -6 -9 6 -9 11 0 22 6 7 9 20 6 29 -4
8 -2 17 4 21 6 3 7 13 4 23 -11 27 -12 71 -1 71 6 0 5 5 -2 12 -9 9 -8 16 6
32 9 11 11 16 5 12 -7 -4 -13 -2 -13 3 0 6 5 11 11 11 5 0 7 5 4 10 -4 6 -11
7 -17 4 -7 -4 -8 -2 -4 5 4 6 12 8 18 5 7 -5 8 -2 2 7 -13 21 -14 38 -2 46 6
3 8 2 5 -4 -4 -6 1 -19 9 -29 9 -10 12 -13 8 -5 -4 8 -8 26 -9 40 -1 16 -7 25
-16 23 -8 -1 -3 7 10 18 14 12 18 20 10 20 -11 0 -11 2 1 10 12 8 12 10 1 10
-11 0 -10 5 4 20 18 20 18 21 -1 14 -17 -7 -17 -6 -5 9 7 9 10 17 6 17 -4 0
-2 6 4 13 6 8 8 17 4 21 -10 10 -13 37 -3 31 5 -3 11 -1 15 5 3 5 2 10 -3 10
-6 0 -9 11 -8 24 0 13 5 22 9 19 5 -3 6 -12 3 -20 -3 -8 -1 -11 5 -8 5 4 7 16
4 26 -4 11 -1 27 7 36 11 14 11 16 -3 11 -13 -5 -16 -2 -12 13 3 10 9 17 12
14 4 -2 8 2 8 10 0 8 -4 15 -9 15 -4 0 -8 5 -8 11 0 5 5 7 12 3 7 -4 8 -3 4 5
-4 6 -2 19 6 28 7 9 8 14 2 10 -7 -4 -15 0 -18 9 -4 9 -2 13 5 8 8 -5 10 3 7
24 -3 22 -1 29 7 22 7 -6 11 -3 11 10 0 10 -3 17 -6 15 -3 -2 -6 7 -6 20 0 13
4 21 8 19 5 -3 5 -10 2 -16 -4 -7 -2 -8 4 -4 9 5 9 13 2 27 -7 13 -7 19 0 19
5 0 10 5 10 11 0 5 -3 8 -7 6 -5 -3 -8 5 -8 18 0 15 4 20 10 15 7 -6 11 -2 11
11 0 10 -4 19 -9 19 -5 0 -4 7 3 15 7 8 9 15 5 15 -4 0 -2 7 5 15 11 13 10 14
-3 9 -16 -6 -19 18 -4 32 11 11 8 26 -3 19 -7 -4 -7 3 0 19 5 14 7 26 4 26 -4
0 -1 7 6 15 11 13 10 14 -4 9 -12 -5 -15 -2 -10 10 3 9 11 13 18 9 6 -4 5 0
-2 9 -11 14 -10 18 4 26 15 8 15 9 0 15 -10 4 -15 3 -11 -3 3 -6 1 -10 -5 -10
-7 0 -9 7 -6 16 3 9 6 18 6 20 0 3 3 3 8 1 4 -3 7 5 7 18 0 19 -3 21 -14 12
-12 -10 -12 -9 -3 10 14 26 16 57 3 49 -11 -7 -8 21 4 31 4 5 5 1 0 -7 -5 -8
-4 -12 0 -7 5 4 9 16 10 26 1 13 -3 17 -14 14 -13 -5 -14 -3 -3 8 15 16 16 33
0 23 -7 -5 -8 -3 -2 7 13 21 14 39 2 39 -6 0 -5 6 2 15 10 12 10 15 0 15 -10
0 -10 3 -1 14 8 10 9 16 1 21 -7 4 -7 13 1 27 8 15 8 19 0 14 -6 -4 -11 -3
-11 3 0 5 4 12 9 15 10 7 9 25 -1 42 -8 12 -6 34 6 53 6 9 5 12 -1 8 -6 -4
-10 4 -10 18 0 16 4 22 11 18 8 -5 8 -3 0 8 -6 8 -14 22 -18 33 -5 14 -3 17
11 12 12 -4 10 1 -7 16 -15 13 -18 19 -8 15 10 -3 20 -1 24 6 4 7 4 9 -1 5 -4
-4 -14 0 -21 10 -16 21 -17 32 -3 32 5 0 7 -4 4 -10 -3 -5 -2 -10 3 -10 5 0 9
13 8 29 -1 18 -5 26 -11 21 -6 -5 -10 2 -10 21 -1 17 4 29 12 29 7 0 13 5 13
11 0 5 -4 7 -10 4 -5 -3 -10 -1 -10 5 0 6 -4 9 -8 6 -5 -3 -9 1 -9 9 0 10 5
11 18 4 15 -7 17 -6 13 6 -4 8 -10 15 -16 15 -5 0 -6 5 -3 10 4 6 11 7 17 4
12 -7 4 9 -15 34 -6 7 -11 24 -12 37 -1 23 0 23 20 7 14 -12 16 -13 8 -2 -7 9
-10 25 -9 35 2 11 -5 32 -16 48 -11 15 -15 27 -9 27 6 0 11 8 11 18 0 10 7 19
15 19 10 0 12 -4 5 -12 -8 -9 -4 -11 13 -8 14 3 29 -2 38 -13 9 -11 9 -15 2
-10 -7 4 -13 2 -13 -3 0 -6 7 -11 16 -11 8 0 12 -4 9 -10 -3 -5 3 -10 13 -10
11 0 26 -8 33 -17 12 -16 12 -17 -2 -6 -12 10 -16 10 -16 0 0 -7 9 -14 19 -14
21 -2 50 -28 41 -37 -4 -3 -1 -6 6 -6 7 0 9 -5 5 -12 -6 -10 -4 -10 8 0 14 11
17 10 22 -5 4 -10 24 -29 46 -42 22 -14 38 -27 35 -29 -2 -3 7 -13 20 -24 14
-11 25 -27 25 -36 0 -15 2 -15 10 -2 9 13 10 13 11 0 1 -8 1 -18 0 -22 0 -5 8
-8 20 -8 13 0 18 -4 13 -12 -5 -8 -2 -9 10 -5 10 4 15 3 11 -3 -3 -6 -1 -10 4
-10 6 0 10 -6 9 -12 -2 -7 7 -14 19 -16 12 -2 27 -10 34 -18 10 -12 9 -13 -7
-8 -18 5 -18 5 -1 -6 9 -6 23 -8 30 -4 8 5 7 2 -2 -9 -12 -15 -12 -17 3 -11
11 4 16 1 17 -12 0 -11 3 -14 6 -7 3 10 7 10 18 0 8 -8 10 -16 3 -24 -6 -8 -3
-10 11 -6 17 4 21 0 22 -18 0 -22 1 -23 9 -4 5 11 9 14 9 6 1 -8 9 -20 19 -27
9 -7 17 -18 17 -25 0 -7 7 -14 15 -16 13 -4 13 -3 0 6 -9 7 -10 11 -3 11 11 0
28 -18 28 -32 0 -3 4 -10 9 -15 5 -5 6 -3 2 5 -4 6 -2 12 3 12 6 0 11 -6 12
-12 0 -7 4 -4 9 7 8 18 9 18 9 2 1 -11 6 -17 14 -14 6 2 11 9 10 14 -1 6 10 9
25 7 14 -1 32 2 39 8 7 6 13 7 13 2 0 -4 6 1 14 11 12 17 16 18 32 5 16 -14
17 -13 11 4 -7 17 -6 17 10 5 9 -8 14 -9 10 -3 -4 7 0 15 9 18 10 4 13 2 8 -7
-6 -9 -5 -9 7 0 11 9 19 9 26 2 7 -7 16 -5 28 7 20 21 45 27 45 13 0 -6 5 -7
10 -4 6 4 8 11 5 16 -3 5 1 6 9 3 8 -3 24 -1 35 6 12 6 21 7 21 1 0 -5 7 -12
16 -15 8 -3 12 -2 9 3 -3 5 -1 12 5 16 5 3 10 1 10 -4 0 -13 42 -10 52 4 5 6
8 5 8 -3 0 -9 5 -10 19 -2 12 6 22 6 26 1 6 -10 26 -8 59 5 14 5 17 4 11 -5
-6 -10 -3 -11 14 -2 16 9 21 9 21 -1 0 -10 2 -10 9 1 6 9 11 10 15 2 4 -6 12
-11 17 -11 6 0 7 5 3 11 -4 8 0 8 15 0 16 -9 21 -9 21 1 0 6 7 3 16 -8 8 -10
13 -14 11 -9 -3 6 10 9 34 7 21 -2 39 -8 39 -12 0 -4 13 -7 29 -6 16 1 29 0
29 -3 -2 -19 4 -24 12 -11 9 13 11 13 20 0 8 -13 10 -13 10 2 0 22 20 34 30
18 5 -8 9 -5 13 10 4 16 11 21 23 16 14 -5 15 -4 4 9 -10 12 -10 15 4 15 9 0
16 5 16 11 0 5 5 7 10 4 6 -4 9 -1 8 7 -2 7 5 12 14 12 10 -1 14 4 11 12 -3 8
0 14 7 14 7 0 10 7 6 16 -5 14 -4 15 9 4 13 -11 14 -10 8 5 -5 15 -3 17 11 12
13 -5 20 0 28 21 6 16 24 34 40 41 16 7 27 16 24 19 -3 2 -14 -1 -23 -9 -10
-7 -2 3 17 24 19 20 41 37 48 37 6 0 12 5 12 11 0 5 4 7 10 4 6 -4 7 1 3 11
-4 12 -3 15 5 10 7 -4 12 -1 12 8 0 9 6 15 13 14 7 -2 11 5 9 16 -3 17 -2 18
12 7 14 -12 16 -11 10 4 -5 13 -4 16 4 11 7 -4 12 -1 12 9 0 9 5 13 10 10 6
-3 10 1 10 10 0 8 7 18 15 21 8 4 13 9 11 13 -2 3 3 12 11 20 13 12 14 11 9
-10 -6 -24 -6 -24 6 1 7 14 18 31 25 38 7 7 13 17 13 22 0 5 7 7 15 4 10 -4
15 0 15 14 0 11 7 23 16 26 8 3 12 2 9 -3 -3 -5 -1 -12 4 -16 6 -3 8 5 5 19
-5 27 7 38 43 42 16 2 21 -1 16 -9 -9 -15 -11 -47 -3 -42 4 3 8 -7 8 -20 0
-14 -6 -25 -12 -25 -7 0 -7 -3 1 -8 13 -8 12 -29 -1 -51 -6 -9 -5 -12 2 -7 7
4 10 -2 9 -14 -1 -14 -6 -19 -17 -15 -9 3 -8 -1 4 -10 14 -11 16 -15 5 -15 -9
0 -10 -3 -3 -8 12 -8 13 -40 1 -59 -4 -6 -2 -15 4 -19 8 -5 9 -3 4 6 -5 9 -4
11 4 6 8 -6 9 -12 2 -20 -6 -7 -7 -17 -3 -21 4 -5 1 -5 -6 -1 -7 4 -9 12 -6
18 4 6 2 8 -4 5 -5 -4 -8 -16 -5 -27 3 -11 8 -18 12 -16 3 2 6 -15 6 -39 0
-42 -1 -43 -20 -27 -18 16 -19 16 -6 0 7 -9 10 -22 6 -27 -4 -7 1 -8 11 -4 11
4 15 3 11 -4 -4 -6 -1 -14 5 -17 7 -3 0 -3 -17 0 -29 5 -29 5 -8 -8 16 -10 20
-17 13 -28 -15 -23 -13 -63 3 -54 6 4 3 -3 -7 -15 -14 -16 -16 -20 -5 -16 12
4 15 -1 14 -24 -1 -17 -5 -34 -10 -38 -4 -5 -5 -2 -1 5 10 17 1 15 -14 -4 -8
-8 -9 -14 -4 -13 21 4 35 -2 29 -11 -4 -6 -11 -8 -16 -5 -5 3 -6 -1 -3 -9 3
-9 10 -13 15 -10 5 3 9 3 9 -1 0 -3 -10 -10 -22 -15 l-23 -9 23 0 c13 -1 21
-5 17 -11 -3 -5 -11 -8 -18 -6 -7 1 -9 1 -4 -1 4 -3 4 -10 1 -15 -5 -7 -2 -8
6 -3 8 5 11 3 8 -6 -3 -8 -12 -13 -19 -11 -9 2 -8 -3 4 -16 24 -26 21 -35 -5
-22 -21 10 -21 9 2 -9 14 -11 20 -21 13 -21 -7 0 -10 -6 -8 -12 10 -29 13
-128 4 -133 -5 -3 -6 2 -3 12 5 15 4 15 -4 3 -12 -16 -6 -33 9 -25 5 4 9 -1 9
-10 0 -10 -4 -13 -12 -9 -7 5 -3 -5 10 -20 22 -29 22 -48 -1 -42 -7 1 -9 1 -4
-1 4 -3 4 -10 0 -16 -4 -6 -1 -8 8 -5 10 4 15 -1 15 -12 0 -10 -4 -16 -8 -14
-12 8 -9 -11 4 -24 9 -9 9 -12 0 -12 -7 0 -12 -5 -12 -11 0 -5 4 -8 9 -5 5 4
7 -3 4 -15 -4 -12 0 -25 8 -30 12 -7 12 -9 -1 -9 -12 0 -12 -2 -2 -9 8 -5 15
-20 15 -34 2 -21 5 -23 16 -14 12 10 12 9 2 -10 -9 -18 -9 -23 0 -23 7 0 9 -3
6 -7 -4 -3 2 -12 13 -20 14 -10 18 -23 17 -53 -2 -27 3 -43 15 -51 13 -10 14
-17 6 -32 -8 -15 -7 -18 3 -12 9 6 11 3 6 -9 -4 -10 -3 -15 3 -11 6 3 10 -5
10 -19 0 -14 5 -26 11 -26 8 0 7 -6 -2 -17 -8 -9 -9 -14 -3 -10 7 4 15 -1 19
-11 13 -28 14 -42 3 -36 -6 4 -5 -2 1 -15 7 -11 9 -21 5 -21 -3 0 -1 -6 5 -14
10 -11 8 -17 -6 -25 -17 -10 -17 -10 2 -11 12 -1 15 -4 7 -7 -10 -4 -10 -8 0
-21 11 -14 10 -15 -7 -8 -16 6 -18 5 -7 -5 15 -16 17 -143 2 -134 -15 9 -12
-2 6 -19 14 -14 14 -16 0 -16 -10 0 -13 -6 -9 -17 5 -12 3 -14 -8 -9 -8 4 -5
0 6 -10 20 -16 20 -16 -3 -11 -17 4 -21 2 -14 -6 17 -22 22 -47 9 -44 -7 1
-12 -9 -12 -26 1 -17 -4 -26 -11 -23 -7 3 -11 -3 -9 -12 1 -9 -3 -23 -9 -31
-7 -10 -7 -13 0 -8 6 3 11 0 11 -7 0 -9 -7 -12 -16 -8 -14 5 -14 4 -1 -13 9
-11 10 -16 3 -11 -9 5 -13 0 -14 -16 -1 -40 -9 -71 -22 -87 -8 -10 -9 -13 0
-8 6 4 15 2 19 -4 4 -8 3 -9 -4 -5 -7 4 -12 2 -12 -4 0 -6 -5 -8 -12 -4 -8 5
-7 0 2 -11 8 -10 10 -16 4 -12 -8 5 -12 -5 -12 -29 0 -19 -3 -38 -6 -41 -3 -3
-1 -12 4 -19 8 -8 6 -16 -4 -26 -9 -10 -11 -20 -5 -31 6 -10 5 -18 -1 -22 -5
-3 -10 -11 -10 -16 0 -6 4 -8 8 -5 4 2 8 -6 8 -19 0 -13 -4 -21 -8 -19 -4 3
-8 0 -8 -5 0 -6 4 -11 9 -11 14 0 21 -29 9 -36 -6 -4 -8 -3 -4 4 3 6 1 14 -5
18 -7 4 -9 3 -5 -4 3 -6 2 -13 -4 -17 -16 -10 0 -27 18 -20 13 5 12 2 -2 -14
-18 -19 -18 -21 -2 -27 14 -5 15 -9 4 -15 -11 -7 -11 -9 1 -9 11 0 11 -3 0
-17 -10 -11 -10 -14 -1 -9 6 4 13 2 13 -3 1 -6 2 -17 3 -23 1 -7 -2 -24 -6
-37 -7 -19 -6 -22 8 -17 14 5 15 4 4 -9 -11 -13 -10 -14 6 -8 17 6 17 5 5 -10
-9 -11 -10 -17 -2 -17 6 0 11 -5 11 -11 0 -5 -4 -8 -8 -5 -5 3 -9 -2 -9 -10 0
-8 6 -13 14 -10 10 4 11 1 4 -12 -6 -11 -5 -24 2 -37 6 -11 12 -28 12 -37 1
-14 -1 -15 -12 -6 -11 8 -12 7 -7 -6 3 -9 10 -16 14 -16 4 0 10 -9 13 -20 3
-13 1 -18 -5 -13 -6 3 -8 1 -4 -5 3 -5 0 -13 -6 -16 -7 -3 -2 -3 12 0 20 5 23
4 13 -7 -15 -15 -17 -33 -4 -24 6 3 9 -7 7 -22 -1 -16 1 -36 6 -45 6 -13 5
-18 -4 -18 -9 0 -9 -3 2 -10 8 -5 11 -10 6 -10 -5 0 -3 -7 4 -15 15 -18 0 -20
-20 -3 -12 11 -12 10 -2 -3 6 -9 8 -20 4 -24 -4 -5 -1 -5 6 -1 6 4 13 2 13 -3
1 -6 2 -17 3 -23 1 -7 -3 -16 -9 -20 -6 -5 -6 -8 3 -8 6 0 12 -5 12 -11 0 -5
-4 -8 -8 -5 -5 3 -9 -1 -9 -9 0 -8 4 -12 9 -9 4 3 8 -4 8 -15 0 -11 5 -23 10
-26 6 -4 8 -11 4 -16 -3 -5 -10 -7 -15 -3 -5 3 -7 9 -5 13 3 4 0 13 -5 21 -7
12 -8 11 -6 -5 2 -11 9 -31 14 -45 12 -29 5 -62 -11 -53 -6 3 -7 2 -3 -3 5 -5
13 -10 18 -10 22 -3 23 -6 5 -13 -17 -7 -17 -8 -2 -24 10 -9 13 -17 8 -17 -12
0 -10 -19 2 -39 6 -9 5 -12 -1 -8 -7 4 -12 -7 -15 -27 -2 -22 0 -32 7 -29 5 4
7 3 3 -2 -4 -4 -2 -15 5 -23 9 -13 9 -14 0 -8 -13 7 -15 -2 -16 -66 0 -15 -4
-25 -9 -22 -4 3 -8 -2 -8 -11 0 -10 5 -14 13 -10 6 4 3 -1 -7 -9 -15 -12 -16
-16 -5 -16 8 0 10 -3 4 -8 -5 -4 -10 -14 -10 -22 0 -8 5 -18 10 -22 6 -5 5 -8
-3 -8 -7 0 -12 -8 -11 -18 3 -31 -1 -43 -11 -37 -5 3 -10 4 -10 0 0 -3 10 -10
23 -15 17 -7 18 -9 5 -9 -19 -1 -25 -31 -7 -31 8 0 7 -5 -1 -15 -7 -9 -20 -13
-29 -10 -11 3 -10 0 3 -10 11 -8 14 -15 7 -15 -7 0 -11 -8 -10 -17 3 -34 -1
-44 -13 -37 -10 6 -10 4 0 -7 15 -16 16 -43 1 -33 -8 5 -8 1 0 -14 8 -16 8
-24 -4 -35 -8 -8 -11 -17 -8 -21 4 -3 1 -6 -5 -6 -7 0 -12 -5 -12 -11 0 -5 6
-7 13 -3 9 6 9 4 1 -7 -6 -8 -14 -27 -18 -42 -4 -15 -11 -25 -16 -22 -5 3 -11
1 -14 -4 -4 -5 -1 -13 5 -17 8 -5 9 -3 4 6 -6 9 -4 11 5 5 10 -6 9 -11 -5 -22
-14 -9 -15 -13 -4 -13 12 0 12 -2 0 -9 -8 -5 -11 -16 -8 -26 4 -9 3 -13 -2
-10 -9 5 -23 -23 -18 -37 1 -4 -7 -14 -18 -22 -19 -15 -19 -15 5 -10 24 5 24
5 5 -8 -11 -7 -20 -24 -20 -38 -1 -17 -6 -25 -17 -24 -11 1 -14 -4 -11 -14 5
-11 2 -13 -8 -8 -8 4 -6 1 4 -7 17 -14 16 -15 -4 -20 -14 -4 -20 -11 -16 -21
4 -10 1 -16 -8 -16 -8 0 -14 -6 -12 -13 1 -6 -4 -11 -11 -9 -8 1 -11 -2 -7 -8
3 -6 11 -8 16 -5 5 4 9 1 9 -4 0 -10 -14 -15 -33 -12 -5 1 -6 -3 -2 -9 3 -6
12 -8 18 -4 7 3 1 -3 -12 -14 -18 -15 -21 -21 -10 -25 11 -4 10 -6 -2 -6 -11
-1 -15 -9 -14 -26 2 -14 -2 -28 -7 -32 -6 -3 -8 -1 -4 5 3 6 1 14 -6 18 -7 4
-10 4 -6 -1 4 -4 2 -15 -5 -23 -10 -13 -9 -14 2 -7 11 6 13 2 9 -19 -4 -21 -3
-24 9 -15 11 10 12 8 7 -6 -6 -14 -4 -16 6 -10 10 6 12 4 8 -7 -5 -12 2 -15
37 -14 35 0 42 4 40 17 -3 13 2 16 18 12 18 -4 20 -3 7 7 -12 10 -11 11 9 6
17 -3 21 -2 13 6 -13 13 -4 40 12 31 6 -4 4 2 -4 12 -9 11 -10 16 -2 11 7 -4
12 -2 12 4 0 6 5 8 11 4 8 -5 8 -1 0 14 -8 16 -7 23 7 33 16 13 16 12 2 -6
-14 -18 -14 -19 2 -7 10 8 15 22 12 37 -3 17 2 29 16 37 11 7 20 19 20 26 0 7
-5 10 -12 6 -7 -5 -8 -3 -4 5 5 7 14 10 21 7 18 -7 27 5 15 19 -8 9 -6 14 6
19 14 5 14 9 3 23 -12 14 -12 16 0 8 11 -6 13 -4 8 9 -4 9 -3 14 2 11 5 -3 12
-1 16 5 3 5 1 10 -5 10 -6 0 -9 4 -5 10 3 5 11 8 18 6 7 -1 9 -1 5 1 -12 7 -9
31 5 36 9 4 9 6 0 6 -7 1 -10 8 -7 16 4 8 10 13 14 10 4 -3 10 4 13 16 5 18 3
18 -11 7 -15 -11 -14 -10 1 8 9 11 17 28 17 38 0 11 4 15 13 10 8 -5 8 -2 -2
9 -9 11 -10 17 -2 17 6 0 11 9 11 21 0 13 -4 18 -12 13 -7 -4 -8 -3 -4 5 6 9
11 9 22 0 17 -14 19 2 2 20 -10 11 -10 13 0 7 8 -5 12 1 13 18 1 14 2 39 3 54
0 16 9 37 19 47 14 13 15 20 6 25 -8 6 -6 9 7 13 16 4 16 5 2 6 -11 1 -15 6
-12 16 4 8 9 13 13 10 4 -2 8 2 8 10 0 8 -4 12 -8 10 -10 -7 2 37 15 54 8 10
8 13 0 8 -6 -3 -11 0 -11 8 0 18 9 19 27 3 12 -11 12 -10 1 4 -7 9 -10 22 -6
27 4 7 -1 9 -12 5 -13 -4 -15 -3 -5 4 8 5 13 12 13 16 -3 23 0 36 8 31 5 -3
13 -1 16 5 4 6 3 9 -2 8 -4 -2 -9 1 -10 6 -1 5 -7 13 -15 17 -10 7 -10 9 2 10
8 1 19 1 23 0 5 -1 6 3 2 9 -3 6 -12 7 -18 3 -9 -5 -9 -3 0 8 7 9 9 20 3 29
-5 9 -5 19 2 27 5 7 8 20 4 28 -3 8 0 15 7 15 8 0 6 4 -3 10 -11 7 -11 10 -2
10 7 0 10 5 6 12 -9 14 -11 78 -3 78 4 0 10 7 13 16 5 13 3 14 -6 6 -10 -8
-13 1 -13 44 0 30 4 54 8 54 5 0 5 5 1 12 -10 15 -12 58 -3 52 15 -9 16 22 1
39 -12 13 -12 17 -2 17 11 0 11 3 2 12 -7 7 -8 17 -1 30 7 13 6 18 -2 18 -8 0
-8 4 1 15 11 13 10 14 -5 9 -12 -5 -16 -4 -12 3 4 6 2 13 -5 15 -7 3 -5 7 6
11 11 5 15 3 10 -5 -4 -7 -3 -8 5 -4 6 4 8 13 4 19 -4 7 -8 17 -8 22 -1 6 -7
9 -14 7 -7 -1 -10 2 -6 8 3 6 11 8 16 5 5 -4 9 -2 9 3 0 6 -7 12 -15 16 -9 3
-12 12 -8 22 4 10 2 15 -4 11 -5 -3 -10 0 -10 8 0 8 4 12 9 9 4 -3 8 -1 8 5 0
5 -6 11 -12 14 -10 3 -10 7 0 19 10 13 10 18 1 24 -8 5 -9 3 -4 -6 5 -8 4 -11
-2 -7 -5 3 -8 20 -5 38 3 19 1 29 -5 26 -5 -3 -10 0 -10 8 0 8 3 12 7 10 15
-10 4 51 -12 63 -23 17 -23 32 0 32 14 0 14 2 3 9 -8 5 -11 16 -8 26 4 9 3 14
-2 11 -5 -3 -11 3 -14 14 -3 12 -1 18 5 14 6 -4 6 1 -1 13 -7 14 -7 23 1 31 8
8 7 13 -5 17 -9 4 -13 13 -10 21 3 8 10 11 16 7 6 -3 7 -1 3 5 -4 7 -15 12
-24 12 -10 0 -13 3 -7 8 6 4 11 18 13 32 2 20 1 22 -7 10 -15 -22 -13 1 3 31
12 23 11 26 -2 25 -10 -1 -16 9 -17 27 -1 19 2 26 11 23 8 -3 11 0 7 9 -3 8
-8 13 -12 11 -4 -3 -7 6 -7 19 0 13 4 21 8 19 5 -3 6 -10 3 -15 -10 -15 2 -10
16 8 10 11 10 14 2 9 -12 -7 -19 21 -13 49 6 26 9 41 9 48 1 5 6 5 12 1 8 -4
8 0 0 15 -10 17 -9 20 5 14 14 -5 14 -2 -2 23 -12 17 -14 25 -5 20 22 -14 32
15 15 42 -15 22 -14 23 5 13 25 -14 42 -14 18 0 -9 6 -15 15 -12 20 4 5 12 6
18 2 7 -4 6 0 -2 10 -10 13 -10 17 -1 17 10 0 10 3 1 14 -8 10 -9 16 -1 21 6
3 7 11 4 17 -5 8 -1 9 11 4 15 -5 16 -4 5 9 -11 13 -10 14 4 9 9 -3 16 -2 16
4 0 6 -5 12 -12 14 -7 3 -8 9 -3 18 5 7 10 34 12 59 2 25 9 48 16 53 6 4 7 8
2 8 -15 0 -15 58 0 63 6 3 12 -1 12 -9 0 -7 -4 -11 -8 -9 -11 7 -5 -23 7 -35
7 -7 10 40 10 144 0 85 -2 153 -4 151 -11 -11 -33 27 -27 46 5 14 3 19 -3 15
-6 -4 -8 2 -4 16 3 14 1 19 -6 14 -8 -5 -10 -2 -6 8 3 9 11 13 18 10 6 -3 -1
6 -16 20 -32 29 -35 38 -10 29 15 -5 15 -4 2 8 -9 8 -23 23 -30 33 -14 18 -13
19 2 13 12 -4 15 -2 11 8 -3 8 -10 12 -16 8 -6 -4 -8 2 -5 15 4 12 2 25 -3 28
-5 3 -6 11 -2 17 4 8 1 7 -9 -1 -14 -11 -16 -10 -11 9 5 17 3 20 -7 14 -9 -6
-11 -4 -5 6 10 16 14 50 6 45 -3 -2 -12 2 -19 10 -10 11 -10 14 0 14 10 0 10
2 1 8 -17 11 -37 66 -20 56 6 -4 4 2 -6 13 -9 11 -14 23 -11 26 4 4 1 13 -6
22 -11 13 -10 14 6 8 15 -5 17 -4 8 8 -12 16 -12 29 -1 46 6 9 3 11 -10 6 -16
-6 -17 -5 -3 12 9 11 10 16 3 11 -7 -4 -13 -3 -13 3 0 5 5 13 10 16 8 5 7 11
-1 21 -9 11 -8 18 2 31 8 9 9 14 3 10 -7 -4 -14 2 -17 14 -4 15 -2 19 9 15 10
-4 13 -2 7 7 -12 20 -14 47 -3 66 6 12 5 22 -3 30 -9 9 -8 14 3 21 10 7 11 10
3 10 -7 0 -13 9 -13 19 0 11 6 22 13 24 9 4 8 6 -2 6 -11 1 -11 4 0 18 10 11
10 14 1 9 -14 -8 -12 19 2 43 6 10 5 12 -2 7 -7 -4 -12 -2 -12 3 0 6 6 11 13
11 8 0 7 4 -3 11 -11 8 -12 12 -2 16 6 2 12 9 12 14 0 6 -4 8 -9 5 -5 -3 -11
1 -14 9 -4 10 -1 12 11 8 15 -6 15 -5 3 10 -11 14 -11 17 0 17 12 0 12 2 0 9
-8 5 -9 11 -3 15 11 7 11 24 -1 43 -4 6 -1 14 5 16 10 4 9 6 -1 6 -11 1 -11 4
0 18 8 9 9 14 3 10 -7 -4 -10 4 -9 21 1 17 7 26 15 24 11 -3 11 0 0 13 -7 8
-10 18 -7 22 4 3 1 13 -6 21 -9 13 -9 14 1 8 6 -4 12 -2 12 3 0 6 -4 11 -9 11
-11 0 -8 53 4 62 6 5 5 8 -4 8 -9 0 -8 5 6 18 10 9 14 14 9 10 -6 -5 -13 -8
-16 -8 -9 0 -6 38 3 46 4 4 2 13 -4 21 -6 7 -8 13 -5 13 4 0 2 10 -5 21 -8 15
-8 19 0 15 6 -4 11 -2 11 4 0 6 4 9 9 6 5 -4 7 3 4 14 -3 11 -9 18 -12 15 -4
-2 -8 2 -8 10 0 8 4 12 9 9 4 -3 8 0 8 5 0 6 -5 11 -11 11 -6 0 -4 7 5 15 14
15 12 50 -3 41 -4 -3 -7 4 -7 14 0 10 4 16 8 14 4 -3 8 0 8 5 0 6 -4 11 -9 11
-10 0 -27 39 -23 54 2 5 -4 6 -12 3 -11 -4 -13 -1 -9 11 3 9 3 14 -2 10 -4 -4
-20 1 -35 12 -19 14 -44 20 -80 20 -28 0 -49 -3 -46 -8z m-2291 -127 c-3 -9
-8 -14 -10 -11 -3 3 -2 9 2 15 9 16 15 13 8 -4z m97 -299 c0 -3 -4 -8 -10 -11
-5 -3 -10 -1 -10 4 0 6 5 11 10 11 6 0 10 -2 10 -4z m1813 -161 c-3 -9 -8 -14
-10 -11 -3 3 -2 9 2 15 9 16 15 13 8 -4z m763 -1239 c1 -8 -3 -13 -10 -10 -6
2 -12 13 -12 24 0 22 18 10 22 -14z m-2 -34 c3 -5 -1 -9 -9 -9 -8 0 -12 4 -9
9 3 4 7 8 9 8 2 0 6 -4 9 -8z m1 -77 c1 -14 -2 -22 -5 -19 -3 3 -5 16 -5 29
-1 14 2 22 5 19 3 -3 5 -16 5 -29z m-2750 -15 c3 -5 -1 -10 -10 -10 -9 0 -13
5 -10 10 3 6 8 10 10 10 2 0 7 -4 10 -10z m84 -534 c7 -8 8 -17 3 -20 -6 -3
-12 3 -15 14 -6 24 -4 25 12 6z m-1199 -890 c0 -2 -7 -7 -16 -10 -8 -3 -12 -2
-9 4 6 10 25 14 25 6z m3845 -116 c3 -5 1 -10 -4 -10 -6 0 -11 5 -11 10 0 6 2
10 4 10 3 0 8 -4 11 -10z m-4115 -334 c0 -3 -4 -8 -10 -11 -5 -3 -10 -1 -10 4
0 6 5 11 10 11 6 0 10 -2 10 -4z m-143 -371 c0 -8 -4 -12 -9 -9 -5 3 -6 10 -3
15 9 13 12 11 12 -6z"/>
<path d="M4495 4840 c-3 -5 -1 -10 4 -10 6 0 11 5 11 10 0 6 -2 10 -4 10 -3 0
-8 -4 -11 -10z"/>
<path d="M2115 4760 c-3 -5 -1 -10 4 -10 6 0 11 5 11 10 0 6 -2 10 -4 10 -3 0
-8 -4 -11 -10z"/>
<path d="M2305 4750 c-3 -6 1 -7 9 -4 18 7 21 14 7 14 -6 0 -13 -4 -16 -10z"/>
<path d="M2113 4705 c0 -8 4 -12 9 -9 5 3 6 10 3 15 -9 13 -12 11 -12 -6z"/>
<path d="M2529 4557 c6 -8 7 -18 3 -22 -4 -5 -1 -5 6 -1 10 6 10 11 1 22 -6 8
-14 14 -16 14 -3 0 0 -6 6 -13z"/>
<path d="M4002 4554 c-7 -8 -8 -14 -3 -14 10 0 25 19 20 25 -2 1 -10 -3 -17
-11z"/>
<path d="M3969 4513 c-13 -16 -12 -17 4 -4 9 7 17 15 17 17 0 8 -8 3 -21 -13z"/>
<path d="M4185 4520 c-3 -6 1 -7 9 -4 18 7 21 14 7 14 -6 0 -13 -4 -16 -10z"/>
<path d="M2285 4470 c-3 -6 1 -7 9 -4 18 7 21 14 7 14 -6 0 -13 -4 -16 -10z"/>
<path d="M3365 4430 c-4 -6 -11 -7 -17 -4 -7 4 -8 2 -4 -5 6 -9 11 -9 22 0 14
11 18 19 10 19 -3 0 -8 -5 -11 -10z"/>
<path d="M3686 4432 c-3 -5 1 -9 9 -9 8 0 12 4 9 9 -3 4 -7 8 -9 8 -2 0 -6 -4
-9 -8z"/>
<path d="M2959 4378 c21 -24 41 -29 41 -11 0 4 -3 3 -7 0 -3 -4 -18 3 -32 15
l-26 23 24 -27z"/>
<path d="M3266 4247 c3 -10 9 -15 12 -12 3 3 0 11 -7 18 -10 9 -11 8 -5 -6z"/>
<path d="M4515 4240 c-3 -5 -2 -10 4 -10 5 0 13 5 16 10 3 6 2 10 -4 10 -5 0
-13 -4 -16 -10z"/>
<path d="M2140 4059 c0 -5 5 -7 10 -4 6 3 10 8 10 11 0 2 -4 4 -10 4 -5 0 -10
-5 -10 -11z"/>
<path d="M4511 3807 c2 -1 13 -9 24 -17 19 -14 19 -14 6 3 -7 9 -18 17 -24 17
-6 0 -8 -1 -6 -3z"/>
<path d="M4695 3700 c-3 -5 -1 -10 4 -10 6 0 11 5 11 10 0 6 -2 10 -4 10 -3 0
-8 -4 -11 -10z"/>
<path d="M4055 3590 c-4 -6 -12 -10 -18 -9 -25 3 -38 -1 -32 -11 4 -6 -3 -6
-21 0 -24 9 -25 9 -14 -5 11 -13 10 -14 -4 -9 -11 4 -23 -1 -32 -12 -9 -11
-13 -13 -9 -6 3 6 1 12 -4 12 -6 0 -11 -7 -11 -16 0 -8 -3 -14 -7 -12 -11 6
-62 -50 -54 -58 3 -4 -2 -4 -12 -1 -10 4 -16 3 -12 -2 9 -15 -6 -41 -24 -41
-9 0 -12 -3 -6 -8 13 -9 11 -42 -3 -67 -9 -17 -10 -16 -9 7 1 14 6 23 12 20 6
-3 4 2 -4 11 -7 9 -14 17 -15 17 -5 0 0 -69 5 -75 11 -11 -2 -45 -15 -38 -7 4
-6 1 1 -9 7 -8 9 -19 5 -23 -4 -5 -1 -5 6 -1 7 4 10 11 7 16 -3 5 0 12 7 16 7
4 10 3 5 -1 -4 -5 1 -17 10 -27 16 -18 16 -19 -3 -13 -18 6 -18 6 -1 -5 10 -6
25 -9 33 -6 8 3 17 -1 21 -10 4 -12 9 -10 24 12 10 15 16 31 13 36 -3 4 3 5
12 1 12 -4 15 -3 10 5 -4 7 -2 12 3 12 6 0 11 5 11 11 0 5 -6 7 -12 3 -9 -5
-9 -3 1 9 7 9 11 28 9 42 -4 19 -2 23 7 15 10 -8 14 -4 19 16 4 14 10 24 13
20 3 -3 12 2 20 12 8 9 12 11 8 5 -9 -19 6 -16 21 5 10 13 13 14 14 3 0 -11 4
-10 16 5 10 12 14 13 11 4 -3 -11 4 -15 27 -16 39 -2 63 -8 73 -19 4 -4 2 -5
-4 -1 -7 4 -13 2 -13 -3 0 -6 5 -11 11 -11 6 0 17 -6 25 -14 11 -11 11 -16 1
-19 -6 -3 -1 -6 13 -6 20 -1 22 -3 10 -12 -12 -8 -12 -12 -2 -16 10 -4 10 -8
0 -21 -11 -13 -10 -15 3 -10 13 5 16 2 12 -13 -3 -10 -10 -19 -16 -19 -6 0 -7
-3 -4 -6 4 -4 14 -1 23 7 16 13 17 12 12 -9 -4 -12 -2 -20 2 -17 5 3 10 2 13
-2 2 -5 2 -2 0 6 -3 13 -1 13 14 0 22 -18 59 -18 55 0 -2 9 3 11 15 7 14 -6
15 -4 6 5 -9 9 -8 15 6 28 9 9 10 12 2 6 -12 -9 -12 -7 -1 14 11 21 10 23 -4
18 -12 -5 -15 -3 -9 5 10 18 11 48 1 48 -5 0 -6 5 -2 11 3 6 0 15 -7 20 -11 7
-11 9 -1 9 7 0 10 5 7 10 -4 6 -10 8 -15 5 -4 -3 -11 6 -14 20 -4 14 -11 25
-16 25 -6 0 -10 5 -10 11 0 5 5 7 12 3 7 -4 8 -3 4 4 -4 6 -13 9 -21 5 -10 -3
-15 1 -15 13 0 16 -2 17 -10 4 -8 -13 -10 -12 -11 5 -1 11 -1 23 -1 26 1 3 -6
6 -13 6 -11 0 -12 -4 -4 -16 7 -9 -1 -2 -17 14 -17 18 -25 23 -21 12 7 -20 -3
-16 -37 12 -11 9 -17 11 -13 6 3 -6 -3 -11 -13 -11 -10 0 -17 4 -14 7 2 4 0
10 -6 14 -5 3 -10 1 -10 -5 0 -6 -5 -8 -10 -5 -6 4 -8 11 -5 16 4 5 4 9 1 9
-3 0 -8 -5 -11 -10z"/>
<path d="M3031 3578 c-1 -9 -6 -20 -13 -24 -7 -4 -8 -3 -4 4 4 7 2 12 -3 12
-6 0 -11 -6 -11 -12 0 -9 -4 -8 -10 2 -8 13 -10 13 -10 -1 0 -9 -7 -19 -15
-23 -8 -3 -15 -1 -15 3 0 5 6 12 13 14 9 4 9 6 -1 6 -8 1 -16 -8 -19 -19 -5
-18 -15 -25 -36 -21 -5 1 -6 -3 -2 -9 3 -5 1 -10 -5 -10 -6 0 -8 -4 -5 -10 3
-6 -1 -7 -9 -4 -11 4 -16 0 -16 -10 0 -9 -6 -16 -12 -16 -9 0 -8 -4 2 -10 13
-8 13 -10 -2 -10 -9 0 -20 -5 -24 -12 -4 -7 -3 -8 4 -4 7 4 12 2 12 -3 0 -6
-5 -11 -11 -11 -6 0 -8 -7 -5 -16 4 -12 2 -15 -9 -10 -8 3 -15 1 -15 -4 0 -6
5 -10 10 -10 6 0 10 -5 10 -11 0 -6 -7 -9 -15 -5 -13 5 -13 2 0 -27 13 -25 13
-28 1 -14 -9 12 -16 14 -21 8 -3 -6 -1 -11 4 -11 6 0 11 -9 11 -20 0 -11 5
-20 10 -20 6 0 10 -5 10 -11 0 -5 -6 -7 -12 -3 -9 5 -8 2 1 -9 8 -10 16 -15
19 -12 3 3 11 0 19 -6 10 -9 13 -8 13 2 0 11 2 11 10 -1 6 -10 10 -11 10 -2 0
6 3 11 8 10 20 -4 39 15 35 35 -4 18 -3 19 6 7 9 -13 11 -12 11 3 0 12 4 16
13 11 9 -6 9 -4 -1 8 -10 13 -10 17 0 21 9 4 10 6 1 6 -7 1 -10 8 -7 16 4 8
11 12 17 8 6 -4 8 0 4 10 -3 10 -2 17 4 17 6 0 7 4 4 10 -3 5 0 7 8 4 8 -3 20
2 27 10 7 9 17 13 23 9 6 -4 7 -1 2 7 -6 10 -4 12 8 7 12 -4 17 -1 17 11 1 15
2 15 10 1 6 -11 18 -15 36 -11 21 4 25 2 19 -9 -6 -11 -5 -12 6 -1 17 15 33
16 23 0 -5 -8 -2 -9 9 -5 9 3 16 3 16 -1 -4 -22 2 -32 14 -26 8 5 7 2 -2 -9
-12 -15 -12 -17 4 -11 13 5 16 4 11 -4 -4 -8 0 -12 11 -12 10 0 14 -4 8 -8
-17 -12 -17 -35 0 -29 13 6 13 3 -1 -19 -13 -20 -14 -24 -3 -22 8 2 13 -3 11
-11 -3 -12 0 -12 12 -2 12 10 14 9 9 -11 -4 -18 -3 -20 6 -8 10 13 15 8 12
-12 0 -4 9 -4 22 1 12 4 28 6 36 3 10 -3 12 0 8 12 -6 15 4 21 26 17 5 -1 6 3
3 8 -4 5 0 12 6 15 7 3 2 3 -12 0 -18 -4 -21 -3 -11 4 7 5 11 15 7 21 -4 7 -1
9 8 5 19 -7 15 19 -7 44 -13 15 -14 21 -4 32 10 10 9 12 -5 7 -12 -4 -15 -2
-11 9 3 7 0 14 -6 14 -6 0 -11 6 -11 14 0 8 -7 16 -15 19 -8 4 -12 15 -10 27
2 11 0 18 -6 15 -5 -4 -9 -1 -9 4 0 6 -7 11 -15 11 -9 0 -18 7 -21 15 -4 8
-10 13 -14 10 -4 -3 -10 5 -14 17 -4 18 -8 20 -18 10 -14 -14 -32 -16 -23 -2
3 6 1 10 -5 10 -6 0 -8 5 -4 12 4 7 3 8 -5 4 -6 -4 -9 -11 -6 -16 3 -5 0 -12
-6 -16 -8 -4 -9 -3 -5 4 4 7 2 12 -4 12 -6 0 -9 4 -6 8 6 10 -74 9 -91 -1 -6
-4 -14 -1 -16 5 -4 8 -6 7 -6 -4z m-11 -162 c0 -3 -4 -8 -10 -11 -5 -3 -10 -1
-10 4 0 6 5 11 10 11 6 0 10 -2 10 -4z m355 -76 c3 -6 -1 -7 -9 -4 -18 7 -21
14 -7 14 6 0 13 -4 16 -10z"/>
<path d="M3860 3510 c-8 -5 -12 -12 -9 -15 4 -3 12 1 19 10 14 17 11 19 -10 5z"/>
<path d="M4598 3492 c7 -5 10 -17 7 -28 -6 -17 -6 -18 5 -1 12 19 6 37 -13 37
-9 0 -8 -3 1 -8z"/>
<path d="M3328 3452 c9 -10 19 -17 21 -16 6 5 -20 34 -30 34 -5 0 -1 -8 9 -18z"/>
<path d="M4670 3246 c0 -2 7 -7 16 -10 8 -3 12 -2 9 4 -6 10 -25 14 -25 6z"/>
<path d="M4840 3246 c0 -2 7 -7 16 -10 8 -3 12 -2 9 4 -6 10 -25 14 -25 6z"/>
<path d="M3070 2917 c0 -10 -4 -16 -8 -13 -4 2 -14 1 -22 -5 -11 -6 -11 -9 -2
-9 10 0 10 -4 0 -22 -13 -25 -18 -57 -9 -56 20 2 22 -4 5 -17 -10 -9 -13 -14
-5 -13 7 2 16 -3 19 -11 2 -8 0 -11 -5 -8 -5 3 -10 0 -10 -8 0 -8 4 -12 8 -10
4 3 10 -2 13 -11 4 -10 2 -13 -7 -8 -9 6 -9 5 0 -8 7 -8 9 -19 5 -24 -4 -4 2
-2 12 6 11 8 17 10 13 4 -4 -7 2 -23 13 -37 11 -14 20 -28 20 -31 0 -4 9 -16
20 -28 10 -12 17 -25 13 -31 -3 -5 5 -4 17 3 15 8 20 8 16 1 -4 -6 0 -11 9
-11 10 0 13 -5 9 -12 -5 -8 -2 -9 10 -5 9 4 15 3 12 -2 -3 -5 1 -14 9 -21 13
-11 15 -10 9 6 -5 18 -5 18 9 1 11 -14 16 -15 20 -5 4 9 6 10 6 1 1 -7 8 -10
18 -6 11 4 14 3 9 -5 -4 -7 -2 -12 3 -12 6 0 11 4 11 8 0 5 7 9 15 9 8 0 12
-4 10 -8 -6 -9 24 -21 36 -13 5 3 9 0 9 -7 0 -6 9 -1 21 12 11 13 17 17 13 9
-7 -13 -5 -13 9 -2 9 8 21 11 27 7 5 -3 10 0 10 7 0 11 2 10 9 0 7 -11 10 -10
15 3 3 9 12 15 18 13 7 -3 21 5 31 16 10 12 16 16 13 10 -3 -6 1 -11 8 -11 8
0 12 7 8 15 -3 10 -1 13 6 8 7 -4 12 -2 12 4 0 6 4 9 9 5 5 -3 13 0 17 6 4 8
3 9 -4 5 -7 -4 -12 -2 -12 3 0 10 14 15 33 12 4 0 7 4 7 10 0 8 4 8 15 -1 8
-6 20 -8 26 -4 7 4 9 3 6 -3 -3 -5 5 -22 19 -39 16 -20 22 -23 17 -9 -6 17 -5
18 9 5 9 -8 14 -18 12 -21 -2 -4 3 -10 12 -13 8 -3 13 -10 10 -14 -3 -5 1 -9
9 -9 8 0 12 4 10 8 -6 8 25 22 33 14 3 -3 -1 -5 -9 -5 -12 0 -12 -2 0 -9 8 -5
21 -7 29 -3 9 3 13 1 9 -5 -3 -5 0 -10 8 -10 8 0 12 4 9 9 -3 4 -1 8 4 8 6 0
13 -7 16 -16 5 -13 9 -14 21 -4 14 11 19 7 16 -12 -3 -18 18 -6 24 13 4 12 10
18 14 13 9 -14 34 -16 25 -3 -5 8 2 10 24 7 17 -2 29 -1 26 4 -5 7 10 12 29 9
4 0 7 4 7 9 0 5 6 9 13 7 6 -1 11 6 11 16 -2 14 1 15 12 6 13 -11 18 -5 15 15
-1 5 5 6 13 3 9 -4 18 -2 21 3 4 6 0 10 -7 10 -10 0 -9 3 2 9 8 6 18 7 24 4 5
-3 6 -1 2 5 -4 7 -3 12 2 12 6 0 13 7 16 16 6 15 4 15 -10 3 -16 -13 -16 -12
-4 8 10 15 18 19 26 12 8 -7 12 -6 11 3 -1 39 5 57 21 61 16 4 16 5 0 6 -26 2
-22 21 5 21 18 0 19 2 7 10 -13 8 -13 13 -2 31 8 11 9 19 4 15 -5 -3 -9 1 -9
8 0 9 7 12 16 9 11 -4 10 -1 -3 9 -13 10 -17 21 -12 33 5 15 4 16 -9 5 -12
-10 -15 -10 -15 3 0 9 -5 19 -12 23 -7 4 -8 3 -4 -4 5 -8 2 -10 -8 -6 -9 3
-13 11 -9 18 4 6 -1 5 -11 -3 -15 -13 -19 -13 -27 0 -5 8 -9 9 -9 3 0 -5 5
-15 12 -22 9 -9 7 -11 -9 -8 -12 3 -20 -1 -20 -10 0 -8 5 -14 11 -14 6 0 5 -4
-3 -9 -7 -5 -22 -28 -32 -51 -13 -28 -15 -40 -6 -34 7 5 5 2 -5 -8 -20 -18
-24 -33 -6 -22 7 4 8 3 4 -5 -4 -6 -12 -9 -17 -6 -5 4 -9 -2 -9 -12 0 -15 -2
-16 -10 -3 -8 12 -10 11 -10 -6 0 -11 -10 -29 -22 -40 -12 -10 -18 -14 -15 -7
5 8 0 11 -12 10 -13 -1 -17 -5 -11 -12 6 -7 -10 -11 -48 -13 -41 -2 -53 0 -42
8 8 5 10 10 4 10 -5 0 -15 -5 -22 -12 -9 -9 -12 -9 -12 0 0 7 -5 12 -11 12 -5
0 -7 -6 -3 -12 4 -7 -4 -3 -18 10 -13 12 -29 22 -35 22 -5 0 -18 10 -29 23
-19 22 -19 22 2 5 11 -10 24 -18 29 -18 5 0 -4 10 -21 23 -31 23 -42 47 -22
47 6 0 8 3 5 6 -4 4 -14 1 -23 -7 -16 -13 -16 -12 -4 11 12 22 11 23 -2 13
-12 -11 -14 -8 -10 15 5 37 -14 85 -30 76 -10 -6 -10 -4 0 8 11 14 10 16 -6
11 -11 -2 -23 0 -26 6 -5 7 0 9 11 5 16 -5 16 -4 -1 6 -14 9 -20 10 -26 1 -4
-7 -13 -11 -21 -9 -8 2 -13 -3 -11 -9 1 -7 -6 -13 -15 -14 -10 0 -13 -3 -6 -5
8 -4 6 -11 -7 -24 -12 -12 -17 -26 -13 -36 4 -12 3 -15 -5 -10 -8 5 -10 2 -6
-9 4 -8 0 -23 -7 -32 -10 -11 -10 -14 -2 -9 9 5 11 2 7 -8 -3 -9 -10 -14 -14
-11 -4 3 -14 -3 -21 -12 -12 -14 -12 -16 1 -8 13 8 13 7 1 -8 -7 -9 -18 -17
-24 -17 -5 0 -15 -7 -21 -15 -6 -8 -30 -16 -53 -18 -23 -1 -45 -6 -50 -10 -4
-5 0 -5 10 -1 9 3 17 2 17 -3 0 -5 -13 -9 -29 -8 -16 0 -27 5 -24 11 2 7 -8
10 -26 9 -23 -1 -29 2 -26 16 2 10 1 18 -3 18 -4 -1 -11 0 -17 1 -5 1 -17 3
-25 4 -8 0 -14 7 -12 14 1 6 -5 12 -14 12 -8 0 -13 4 -10 9 4 5 1 11 -4 13 -6
2 -12 20 -13 41 -1 20 -5 37 -9 37 -5 0 -8 -5 -8 -12 0 -6 -3 -9 -6 -6 -3 4
-1 15 5 27 8 14 8 22 -1 27 -7 5 -8 3 -3 -6 5 -9 4 -11 -3 -6 -7 4 -12 14 -12
22 0 9 5 12 12 8 7 -4 8 -3 4 5 -4 6 -11 9 -16 6 -4 -3 -11 2 -14 10 -4 12
-10 14 -25 5 -16 -8 -22 -6 -30 7 -10 17 -10 17 -11 0z m507 -82 c0 -8 -4 -12
-9 -9 -5 3 -6 10 -3 15 9 13 12 11 12 -6z m-307 -156 c0 -6 -4 -7 -10 -4 -5 3
-10 11 -10 16 0 6 5 7 10 4 6 -3 10 -11 10 -16z"/>
<path d="M4092 2875 c4 -4 3 -14 -4 -22 -6 -7 -9 -15 -7 -18 3 -2 10 4 17 15
9 15 9 21 -1 26 -6 4 -9 4 -5 -1z"/>
<path d="M3810 2691 c0 -6 4 -13 10 -16 6 -3 7 1 4 9 -7 18 -14 21 -14 7z"/>
<path d="M3996 2688 c3 -5 10 -6 15 -3 13 9 11 12 -6 12 -8 0 -12 -4 -9 -9z"/>
<path d="M2030 2659 c0 -5 5 -7 10 -4 6 3 10 8 10 11 0 2 -4 4 -10 4 -5 0 -10
-5 -10 -11z"/>
<path d="M2026 2558 c3 -4 9 -8 15 -8 5 0 9 4 9 8 0 5 -7 9 -15 9 -8 0 -12 -4
-9 -9z"/>
<path d="M2035 2529 c-4 -6 -5 -12 -2 -15 2 -3 7 2 10 11 7 17 1 20 -8 4z"/>
<path d="M4743 2475 c0 -8 4 -12 9 -9 5 3 6 10 3 15 -9 13 -12 11 -12 -6z"/>
<path d="M4735 2440 c3 -5 8 -10 11 -10 2 0 4 5 4 10 0 6 -5 10 -11 10 -5 0
-7 -4 -4 -10z"/>
<path d="M1561 2284 c0 -11 3 -14 6 -6 3 7 2 16 -1 19 -3 4 -6 -2 -5 -13z"/>
<path d="M1635 2150 c-3 -5 -1 -10 4 -10 6 0 11 5 11 10 0 6 -2 10 -4 10 -3 0
-8 -4 -11 -10z"/>
<path d="M1555 2111 c-3 -5 -2 -12 3 -15 5 -3 9 1 9 9 0 17 -3 19 -12 6z"/>
<path d="M1325 1970 c-3 -6 1 -7 9 -4 18 7 21 14 7 14 -6 0 -13 -4 -16 -10z"/>
<path d="M931 1807 c-13 -21 -12 -21 5 -5 10 10 16 20 13 22 -3 3 -11 -5 -18
-17z"/>
<path d="M723 1525 c0 -8 4 -12 9 -9 5 3 6 10 3 15 -9 13 -12 11 -12 -6z"/>
<path d="M660 1420 c-9 -6 -10 -10 -3 -10 6 0 15 5 18 10 8 12 4 12 -15 0z"/>
<path d="M4675 1351 c-3 -5 -2 -12 3 -15 5 -3 9 1 9 9 0 17 -3 19 -12 6z"/>
<path d="M4670 1219 c0 -5 5 -7 10 -4 6 3 10 8 10 11 0 2 -4 4 -10 4 -5 0 -10
-5 -10 -11z"/>
<path d="M4665 1161 c-3 -5 -2 -12 3 -15 5 -3 9 1 9 9 0 17 -3 19 -12 6z"/>
<path d="M4810 1006 c0 -2 7 -7 16 -10 8 -3 12 -2 9 4 -6 10 -25 14 -25 6z"/>
<path d="M4636 907 c3 -10 9 -15 12 -12 3 3 0 11 -7 18 -10 9 -11 8 -5 -6z"/>
<path d="M4596 742 c-3 -5 1 -9 9 -9 8 0 12 4 9 9 -3 4 -7 8 -9 8 -2 0 -6 -4
-9 -8z"/>
</g>
</svg>
